<svg xmlns="http://www.w3.org/2000/svg" version="1.1" xlink="http://www.w3.org/1999/xlink" xmlns:svgjs="http://svgjs.com/svgjs" width="100%" height="100%" preserveAspectRatio="xMidYMid meet" viewBox="-1.901347701505074e-7 -7.632292664538909e-8 154.44419860839844 147" overflow="visible"><defs id="SvgjsDefs5723"></defs><g id="SvgjsG5724" transform="scale(0.7974830646894838)" opacity="1"><g id="SvgjsG5725" class="MkTyJYuX9k" transform="translate(-10.759142510500755, -15.428610360058071) scale(2.151828502100151)" light-content="false" non-strokable="false" fill="#000000"><path fill-rule="evenodd" clip-rule="evenodd" d="M7.882 78.049h3.567l50.157-56.792.526-8.651.967-1.148-.213 8.347 1.185-1.339a.343.343 0 0 1 .436-.05c.141.091.168.259.064.377l-1.707 1.929-.036 1.375 1.23-1.575a.352.352 0 0 1 .436-.073c.145.086.182.254.086.377l-1.779 2.269-.041 1.561 1.289-1.897c.086-.127.281-.172.431-.095.15.077.2.241.109.368l-1.856 2.741-.041 1.611 1.343-2.383c.077-.132.263-.191.422-.123.154.064.218.222.145.359l-1.947 3.44-.045 1.77 1.416-3.2c.059-.141.241-.209.404-.159.163.054.245.209.182.349l-2.042 4.62-1.189 45.99h5.533l.077 1.484-5.655.163-.1 3.98-3.64 3.468.445-7.353L5 81.394l2.882-3.345zm83.964 0L67.941 24.815l.241 3.763L88.66 78.049h3.186zM67.878 23.844l24.341 54.205h2.387l.394.935-22.466.44-.123-1.375h5.265l-8.288-30.59 2.9 45.373-3.962-8.555-2.669-75.7L66.81 7.17l1.068 16.674zm20.419 54.205L68.25 29.617l.263 4.117 16.593 44.315h3.191zm-3.54 0L68.586 34.868l.281 4.457 12.686 38.724h3.204zm-3.545 0L68.953 40.614l.336 5.265 8.714 32.17h3.209zm-68.978 0h6.749l42.464-54.191.1-1.643-49.313 55.834zm7.507 0h6.776l34.748-51.187.118-1.956-41.642 53.143zm7.502 0h6.799l27.014-47.774.136-2.238-33.949 50.012zm7.498 0h6.826l19.226-43.494.177-2.9-26.229 46.394zm7.498 0h15.908l2.542-41.733-18.45 41.733zm20.565-22.221l3.994-1.675.118 3.277-4.18.631.068-2.233z"></path></g></g></svg>