<!-- sample rectangle -->
<svg xmlns="http://www.w3.org/2000/svg" version="1.1" xlink="http://www.w3.org/1999/xlink" xmlns:svgjs="http://svgjs.com/svgjs" width="100%" height="100%" preserveAspectRatio="xMidYMid meet" viewBox="-7.740863594563052e-8 0 300.00274658203125 70.56912994384766" overflow="visible"><defs id="SvgjsDefs6285"></defs><g id="SvgjsG6286" transform="scale(0.6493506493506495)" opacity="1"><rect id="SvgjsRect6287" fill="#000000" transform="translate(115.82283123270108, 0.20872725791770108) scale(1)" light-content="false"></rect><g id="SvgjsG6288" class="text" transform="translate(225.9936381694615, 108.37645974415635) scale(1)" light-content="false" fill="#000000"><path d="M-74.06 -25.01C-76.07 -26.18 -78.34 -26.76 -80.86 -26.76C-83 -26.76 -84.96 -26.41 -86.74 -25.71C-88.52 -25 -90 -23.97 -91.18 -22.61L-88.8 -20.22C-86.78 -22.32 -84.2 -23.36 -81.05 -23.36C-79.41 -23.36 -77.91 -23.01 -76.55 -22.3C-75.19 -21.6 -74.07 -20.62 -73.19 -19.36C-72.3 -18.09 -71.74 -16.65 -71.49 -15.01L-84.26 -15.01L-84.26 -11.91L-71.45 -11.91C-71.62 -10.19 -72.15 -8.67 -73.04 -7.33C-73.92 -6 -75.05 -4.96 -76.44 -4.22C-77.82 -3.47 -79.36 -3.1 -81.05 -3.1C-84.22 -3.1 -86.81 -4.15 -88.8 -6.24L-91.18 -3.86C-90 -2.49 -88.52 -1.46 -86.76 -0.76C-84.99 -0.05 -83.03 0.3 -80.86 0.3C-78.34 0.3 -76.07 -0.28 -74.06 -1.46C-72.04 -2.63 -70.45 -4.24 -69.29 -6.29C-68.13 -8.35 -67.55 -10.66 -67.55 -13.23C-67.55 -15.8 -68.13 -18.11 -69.29 -20.17C-70.45 -22.22 -72.04 -23.83 -74.06 -25.01Z M-52.21 -11.64L-43.62 0L-39.31 0L-49.22 -13.65L-39.77 -26.46L-43.81 -26.46L-52.13 -14.97L-57.73 -14.97L-57.73 -26.46L-61.43 -26.46L-61.43 0L-57.73 0L-57.73 -11.64Z M-30.83 -1.46C-28.7 -0.28 -26.31 0.3 -23.66 0.3C-21.6 0.3 -19.7 -0.05 -17.98 -0.76C-16.25 -1.46 -14.78 -2.49 -13.57 -3.86L-16.03 -6.24C-18.04 -4.12 -20.53 -3.06 -23.48 -3.06C-25.44 -3.06 -27.22 -3.5 -28.81 -4.39C-30.39 -5.27 -31.63 -6.48 -32.53 -8.03C-33.42 -9.58 -33.87 -11.32 -33.87 -13.23C-33.87 -15.15 -33.42 -16.88 -32.53 -18.43C-31.63 -19.98 -30.39 -21.19 -28.81 -22.08C-27.22 -22.96 -25.44 -23.4 -23.48 -23.4C-20.5 -23.4 -18.02 -22.35 -16.03 -20.26L-13.57 -22.64C-14.78 -24 -16.24 -25.03 -17.96 -25.72C-19.67 -26.42 -21.56 -26.76 -23.63 -26.76C-26.27 -26.76 -28.67 -26.18 -30.81 -25.01C-32.95 -23.83 -34.63 -22.22 -35.84 -20.17C-37.05 -18.11 -37.65 -15.8 -37.65 -13.23C-37.65 -10.66 -37.05 -8.35 -35.84 -6.29C-34.63 -4.24 -32.96 -2.63 -30.83 -1.46Z M14.44 -26.46L-8.35 -26.46L-8.35 0L-4.61 0L-4.61 -23.17L10.74 -23.17L10.74 0L14.44 0Z M41.89 -3.29L26.46 -3.29L26.46 -11.83L39.73 -11.83L39.73 -15.05L26.46 -15.05L26.46 -23.17L41.36 -23.17L41.36 -26.46L22.68 -26.46L22.68 0L41.89 0Z M66.23 -24C64.26 -25.64 61.57 -26.46 58.14 -26.46L47.82 -26.46L47.82 0L51.6 0L51.6 -8.01L58.14 -8.01C61.57 -8.01 64.26 -8.83 66.23 -10.47C68.2 -12.11 69.18 -14.37 69.18 -17.24C69.18 -20.11 68.2 -22.37 66.23 -24ZM63.51 -12.83C62.25 -11.81 60.42 -11.3 58.03 -11.3L51.6 -11.3L51.6 -23.17L58.03 -23.17C60.42 -23.17 62.25 -22.66 63.51 -21.64C64.77 -20.62 65.4 -19.15 65.4 -17.24C65.4 -15.32 64.77 -13.85 63.51 -12.83Z M91.79 -23.17L91.79 -26.46L69.97 -26.46L69.97 -23.17L79.01 -23.17L79.01 0L82.71 0L82.71 -23.17Z"></path></g><g id="SvgjsG6289" class="text" transform="translate(303.1941830886976, 69.05583787059552) scale(1)" light-content="false" fill="#000000"><path d="M-168.47 -25.14L-168.47 0L-165.16 0L-150.26 -19.36L-150.26 0L-146.74 0L-146.74 -25.14L-150.04 -25.14L-164.91 -5.75L-164.91 -25.14Z M-111.98 -22.01L-111.98 -25.14L-132.7 -25.14L-132.7 -22.01L-124.11 -22.01L-124.11 0L-120.59 0L-120.59 -22.01Z M-92.51 -6.28L-89.75 0L-85.98 0L-97.4 -25.14L-100.95 -25.14L-112.34 0L-108.64 0L-105.87 -6.28ZM-93.77 -9.16L-104.61 -9.16L-99.19 -21.48Z M-58.32 0L-54.87 0L-54.91 -25.14L-57.86 -25.14L-68.2 -7.47L-78.68 -25.14L-81.63 -25.14L-81.63 0L-78.18 0L-78.18 -18.21L-69.1 -3.05L-67.44 -3.05L-58.36 -18.32Z M-42.59 -1.38C-40.56 -0.27 -38.27 0.29 -35.73 0.29C-33.22 0.29 -30.94 -0.27 -28.91 -1.38C-26.87 -2.5 -25.28 -4.03 -24.13 -5.98C-22.98 -7.93 -22.41 -10.13 -22.41 -12.57C-22.41 -15.01 -22.98 -17.21 -24.13 -19.16C-25.28 -21.11 -26.87 -22.64 -28.91 -23.76C-30.94 -24.87 -33.22 -25.43 -35.73 -25.43C-38.27 -25.43 -40.56 -24.87 -42.59 -23.76C-44.63 -22.64 -46.23 -21.1 -47.39 -19.14C-48.55 -17.18 -49.13 -14.99 -49.13 -12.57C-49.13 -10.15 -48.55 -7.96 -47.39 -6C-46.23 -4.03 -44.63 -2.5 -42.59 -1.38ZM-30.76 -4.17C-32.23 -3.33 -33.89 -2.91 -35.73 -2.91C-37.58 -2.91 -39.25 -3.33 -40.74 -4.17C-42.24 -5 -43.41 -6.16 -44.26 -7.63C-45.11 -9.1 -45.54 -10.75 -45.54 -12.57C-45.54 -14.39 -45.11 -16.04 -44.26 -17.51C-43.41 -18.98 -42.24 -20.14 -40.74 -20.97C-39.25 -21.81 -37.58 -22.23 -35.73 -22.23C-33.89 -22.23 -32.23 -21.81 -30.76 -20.97C-29.29 -20.14 -28.13 -18.98 -27.28 -17.51C-26.43 -16.04 -26 -14.39 -26 -12.57C-26 -10.75 -26.43 -9.1 -27.28 -7.63C-28.13 -6.16 -29.29 -5 -30.76 -4.17Z M3.63 -11.06L10.67 0L14.87 0L6.57 -13L14.26 -25.14L10.41 -25.14L3.66 -14.22L-1.15 -14.22L-1.15 -25.14L-4.67 -25.14L-4.67 -14.22L-9.55 -14.22L-16.27 -25.14L-20.11 -25.14L-12.43 -13.07L-20.72 0L-16.52 0L-9.48 -11.06L-4.67 -11.06L-4.67 0L-1.15 0L-1.15 -11.06Z M36.88 -3.12L22.23 -3.12L22.23 -11.24L34.84 -11.24L34.84 -14.29L22.23 -14.29L22.23 -22.01L36.38 -22.01L36.38 -25.14L18.64 -25.14L18.64 0L36.88 0Z M64.14 -25.14L60.55 -25.14L60.55 -14.33L46.11 -14.33L46.11 -25.14L42.52 -25.14L42.52 0L46.11 0L46.11 -11.2L60.55 -11.2L60.55 0L64.14 0Z M93.59 -25.14L90 -25.14L90 -14.33L75.56 -14.33L75.56 -25.14L71.97 -25.14L71.97 0L75.56 0L75.56 -11.2L90 -11.2L90 0L93.59 0Z M119.32 -14.37C117.73 -15.71 115.44 -16.38 112.44 -16.38L104.97 -16.38L104.97 -25.14L101.42 -25.14L101.42 0L111.8 0C114.98 0 117.43 -0.72 119.14 -2.15C120.85 -3.59 121.71 -5.69 121.71 -8.44C121.71 -11.05 120.91 -13.02 119.32 -14.37ZM116.45 -4.26C115.33 -3.31 113.74 -2.84 111.65 -2.84L104.97 -2.84L104.97 -13.54L111.65 -13.54C115.96 -13.54 118.12 -11.82 118.12 -8.37C118.12 -6.57 117.56 -5.2 116.45 -4.26ZM125.69 -25.14L125.69 0L129.25 0L129.25 -25.14Z M137.08 -25.14L137.08 0L140.38 0L155.29 -19.36L155.29 0L158.81 0L158.81 -25.14L155.5 -25.14L140.63 -5.75L140.63 -25.14ZM143.35 -28.17C144.41 -27.32 145.93 -26.9 147.89 -26.9C149.83 -26.9 151.33 -27.33 152.4 -28.19C153.46 -29.05 154.01 -30.26 154.03 -31.82L151.52 -31.82C151.49 -30.88 151.15 -30.16 150.49 -29.65C149.83 -29.13 148.97 -28.87 147.89 -28.87C146.76 -28.87 145.88 -29.13 145.25 -29.65C144.61 -30.16 144.29 -30.88 144.26 -31.82L141.71 -31.82C141.74 -30.24 142.28 -29.02 143.35 -28.17Z"></path></g><g id="SvgjsG6290" class="text" transform="translate(258.3318213079325, 31.82) scale(1)" light-content="false" fill="#000000"><path d="M-102.49 -22.01L-102.49 -25.14L-123.22 -25.14L-123.22 -22.01L-114.63 -22.01L-114.63 0L-111.11 0L-111.11 -22.01Z M-79.87 -3.12L-94.52 -3.12L-94.52 -11.24L-81.92 -11.24L-81.92 -14.29L-94.52 -14.29L-94.52 -22.01L-80.37 -22.01L-80.37 -25.14L-98.11 -25.14L-98.11 0L-79.87 0Z M-52.61 -25.14L-56.2 -25.14L-56.2 -14.33L-70.64 -14.33L-70.64 -25.14L-74.23 -25.14L-74.23 0L-70.64 0L-70.64 -11.2L-56.2 -11.2L-56.2 0L-52.61 0Z M-21.15 -3.12L-24.85 -3.12L-24.85 -25.14L-42.52 -25.14L-42.77 -17.06C-42.92 -12.68 -43.31 -9.28 -43.96 -6.88C-44.6 -4.47 -45.72 -3.22 -47.3 -3.12L-48.52 -3.12L-48.55 5.49L-45.21 5.49L-45.18 0L-24.49 0L-24.49 5.49L-21.15 5.49ZM-40.46 -7.94C-40.01 -10.26 -39.73 -13.19 -39.61 -16.74L-39.43 -22.01L-28.41 -22.01L-28.41 -3.12L-42.59 -3.12C-41.61 -4.01 -40.9 -5.61 -40.46 -7.94Z M2.01 -3.12L-12.64 -3.12L-12.64 -11.24L-0.04 -11.24L-0.04 -14.29L-12.64 -14.29L-12.64 -22.01L1.51 -22.01L1.51 -25.14L-16.23 -25.14L-16.23 0L2.01 0Z M25.14 -22.8C23.27 -24.36 20.71 -25.14 17.45 -25.14L7.65 -25.14L7.65 0L11.24 0L11.24 -7.61L17.45 -7.61C20.71 -7.61 23.27 -8.39 25.14 -9.95C27.01 -11.5 27.94 -13.65 27.94 -16.38C27.94 -19.11 27.01 -21.25 25.14 -22.8ZM22.55 -12.19C21.36 -11.22 19.62 -10.74 17.35 -10.74L11.24 -10.74L11.24 -22.01L17.35 -22.01C19.62 -22.01 21.36 -21.53 22.55 -20.56C23.75 -19.59 24.35 -18.2 24.35 -16.38C24.35 -14.56 23.75 -13.16 22.55 -12.19Z M54.55 -25.14L50.96 -25.14L50.96 -14.33L36.52 -14.33L36.52 -25.14L32.93 -25.14L32.93 0L36.52 0L36.52 -11.2L50.96 -11.2L50.96 0L54.55 0Z M80.28 -14.37C78.69 -15.71 76.4 -16.38 73.41 -16.38L65.94 -16.38L65.94 -25.14L62.38 -25.14L62.38 0L72.76 0C75.94 0 78.39 -0.72 80.1 -2.15C81.82 -3.59 82.67 -5.69 82.67 -8.44C82.67 -11.05 81.88 -13.02 80.28 -14.37ZM77.41 -4.26C76.3 -3.31 74.7 -2.84 72.62 -2.84L65.94 -2.84L65.94 -13.54L72.62 -13.54C76.93 -13.54 79.08 -11.82 79.08 -8.37C79.08 -6.57 78.52 -5.2 77.41 -4.26ZM86.66 -25.14L86.66 0L90.21 0L90.21 -25.14Z M98.04 -25.14L98.04 0L101.35 0L116.25 -19.36L116.25 0L119.77 0L119.77 -25.14L116.47 -25.14L101.6 -5.75L101.6 -25.14ZM104.31 -28.17C105.37 -27.32 106.89 -26.9 108.85 -26.9C110.79 -26.9 112.29 -27.33 113.36 -28.19C114.42 -29.05 114.97 -30.26 114.99 -31.82L112.48 -31.82C112.45 -30.88 112.11 -30.16 111.46 -29.65C110.8 -29.13 109.93 -28.87 108.85 -28.87C107.73 -28.87 106.85 -29.13 106.21 -29.65C105.58 -30.16 105.25 -30.88 105.22 -31.82L102.67 -31.82C102.7 -30.24 103.24 -29.02 104.31 -28.17Z"></path></g><g id="SvgjsG6291" class="Ba0lgISs0z" transform="translate(-6.034159304115759, -3.4369052357892613) scale(1.2068318608231532)" light-content="false" non-strokable="false" fill="#000000"><path fill-rule="evenodd" clip-rule="evenodd" d="M7.882 78.049h3.567l50.157-56.792.526-8.651.967-1.148-.213 8.347 1.185-1.339a.343.343 0 0 1 .436-.05c.141.091.168.259.064.377l-1.707 1.929-.036 1.375 1.23-1.575a.352.352 0 0 1 .436-.073c.145.086.182.254.086.377l-1.779 2.269-.041 1.561 1.289-1.897c.086-.127.281-.172.431-.095.15.077.2.241.109.368l-1.856 2.741-.041 1.611 1.343-2.383c.077-.132.263-.191.422-.123.154.064.218.222.145.359l-1.947 3.44-.045 1.77 1.416-3.2c.059-.141.241-.209.404-.159.163.054.245.209.182.349l-2.042 4.62-1.189 45.99h5.533l.077 1.484-5.655.163-.1 3.98-3.64 3.468.445-7.353L5 81.394l2.882-3.345zm83.964 0L67.941 24.815l.241 3.763L88.66 78.049h3.186zM67.878 23.844l24.341 54.205h2.387l.394.935-22.466.44-.123-1.375h5.265l-8.288-30.59 2.9 45.373-3.962-8.555-2.669-75.7L66.81 7.17l1.068 16.674zm20.419 54.205L68.25 29.617l.263 4.117 16.593 44.315h3.191zm-3.54 0L68.586 34.868l.281 4.457 12.686 38.724h3.204zm-3.545 0L68.953 40.614l.336 5.265 8.714 32.17h3.209zm-68.978 0h6.749l42.464-54.191.1-1.643-49.313 55.834zm7.507 0h6.776l34.748-51.187.118-1.956-41.642 53.143zm7.502 0h6.799l27.014-47.774.136-2.238-33.949 50.012zm7.498 0h6.826l19.226-43.494.177-2.9-26.229 46.394zm7.498 0h15.908l2.542-41.733-18.45 41.733zm20.565-22.221l3.994-1.675.118 3.277-4.18.631.068-2.233z"></path></g></g></svg>