<?xml version="1.0" standalone="no"?>
<!DOCTYPE svg PUBLIC "-//W3C//DTD SVG 20010904//EN"
 "http://www.w3.org/TR/2001/REC-SVG-20010904/DTD/svg10.dtd">
<svg version="1.0" xmlns="http://www.w3.org/2000/svg"
 width="1249.000000pt" height="1249.000000pt" viewBox="0 0 1249.000000 1249.000000"
 preserveAspectRatio="xMidYMid meet">
<metadata>
Created by potrace 1.14, written by Peter Selinger 2001-2017
</metadata>
<g transform="translate(0.000000,1249.000000) scale(0.100000,-0.100000)"
fill="#000000" stroke="none">
<path d="M5025 12479 c484 -3 950 -7 1035 -8 133 -1 152 -3 140 -15 -28 -27
-199 -126 -409 -236 -116 -61 -248 -133 -293 -160 -66 -40 -85 -47 -101 -39
-19 11 -47 67 -82 162 -9 26 -27 54 -38 61 -18 11 -131 10 -672 -6 -357 -10
-1517 -42 -2578 -72 -1060 -29 -1930 -56 -1933 -59 -3 -3 -3 -11 1 -17 5 -8
75 -9 238 -5 128 3 464 10 747 15 662 13 1378 33 2629 71 552 16 1013 29 1025
27 67 -10 -1101 -239 -2769 -543 -699 -128 -1207 -225 -1635 -312 -180 -37
-235 -52 -235 -63 0 -10 8 -14 25 -12 62 8 1250 227 2071 381 497 94 1277 240
1733 326 456 85 830 154 832 152 14 -14 -2385 -1111 -3916 -1792 -633 -282
-745 -335 -748 -353 -6 -39 -133 -93 1428 608 1220 549 2379 1078 3147 1438
l192 90 -34 -67 c-63 -127 -161 -234 -425 -467 -150 -132 -217 -197 -276 -265
-34 -39 -93 -74 -439 -259 -880 -468 -1896 -1023 -3019 -1649 -308 -171 -563
-311 -568 -311 -4 0 -8 -9 -8 -20 0 -11 5 -20 11 -20 37 0 3130 1690 3716
2029 37 22 69 38 72 36 10 -11 -90 -122 -200 -220 -67 -60 -139 -131 -160
-158 -22 -27 -101 -105 -176 -175 -319 -291 -500 -465 -1253 -1197 -748 -727
-807 -783 -1060 -1021 -416 -390 -792 -724 -814 -724 -7 0 -33 7 -56 15 -81
29 -81 29 -78 -183 l3 -186 75 -23 c153 -48 696 -193 934 -250 218 -51 246
-60 246 -78 0 -23 -86 -105 -112 -105 -9 0 -268 63 -574 140 -307 77 -561 140
-566 140 -4 0 -8 -223 -8 -495 l0 -494 38 -10 c20 -5 350 -77 732 -160 382
-83 1150 -249 1705 -370 556 -121 1183 -256 1395 -301 212 -45 386 -83 388
-85 2 -1 -22 -283 -52 -626 -75 -839 -82 -930 -106 -1249 -24 -336 -25 -360
-5 -360 17 0 14 15 59 -260 20 -118 56 -325 80 -460 24 -135 43 -245 42 -246
0 0 -246 -26 -546 -58 -447 -47 -1625 -174 -3455 -374 l-250 -27 -3 -239 c-1
-132 1 -243 5 -247 5 -5 265 24 579 63 l570 71 52 -24 c29 -13 52 -27 52 -31
0 -11 -8 -12 -385 -58 -187 -23 -459 -58 -605 -78 l-265 -37 -3 -50 c-2 -28 0
-70 3 -94 l7 -44 65 6 66 7 226 -99 c220 -96 637 -287 869 -397 63 -30 116
-53 118 -51 2 2 -36 23 -84 46 -48 24 -300 150 -561 280 l-473 236 48 7 c27 4
191 28 364 52 173 25 440 64 592 86 l278 41 122 -67 c68 -37 272 -151 453
-254 182 -103 405 -228 497 -278 101 -54 190 -110 224 -140 52 -47 60 -51 105
-50 27 1 48 2 46 3 -1 1 -58 33 -127 70 -100 55 -144 86 -220 158 -52 50 -192
171 -310 270 -238 200 -393 337 -386 344 2 2 122 22 267 43 145 21 399 59 564
85 325 49 742 105 786 105 23 0 30 -8 49 -52 109 -254 500 -1048 516 -1048 8
0 -4 35 -33 98 -279 598 -460 1008 -451 1017 7 8 69 -20 101 -45 15 -12 46
-50 69 -83 23 -34 78 -101 122 -148 45 -47 101 -112 126 -145 25 -32 86 -104
135 -159 50 -55 143 -161 206 -235 64 -74 133 -150 153 -169 28 -27 37 -45 42
-83 l7 -48 183 0 184 0 -6 28 c-10 56 -127 928 -148 1107 -21 171 -21 165 10
165 15 0 90 9 168 20 77 11 155 22 173 24 l32 5 27 -87 c14 -48 68 -197 119
-332 126 -334 176 -497 178 -579 0 -20 -16 -94 -36 -166 -21 -71 -40 -148 -44
-170 -9 -60 11 -32 32 45 21 81 87 260 95 260 3 0 11 -23 17 -50 19 -78 107
-290 121 -290 6 0 12 6 12 13 0 21 -136 420 -250 732 -108 296 -222 627 -218
631 2 1 113 18 248 38 135 20 251 39 258 41 6 2 12 -1 12 -8 0 -32 -36 -191
-90 -401 -58 -226 -91 -395 -89 -466 1 -43 12 -1 94 350 60 259 123 500 134
519 4 6 29 15 57 20 98 19 607 91 611 87 7 -7 -16 -126 -39 -201 -12 -38 -67
-160 -123 -270 -56 -110 -116 -237 -134 -282 -17 -46 -53 -125 -80 -175 -27
-51 -85 -177 -130 -279 -44 -103 -97 -220 -118 -260 -21 -41 -39 -77 -41 -81
-2 -5 2 -8 8 -8 12 0 165 309 295 595 106 235 335 698 342 692 3 -3 0 -43 -6
-88 -6 -45 -11 -153 -11 -239 0 -306 -59 -498 -254 -824 -42 -71 -75 -130 -74
-132 2 -1 49 66 105 149 56 84 115 168 132 187 l30 35 1 -96 c0 -86 -19 -194
-45 -261 -7 -17 3 -18 114 -18 74 0 121 -4 121 -10 0 -6 29 -10 68 -10 l68 0
225 228 c236 238 316 326 391 433 95 135 77 119 -123 -111 -138 -159 -479
-514 -486 -506 -5 5 46 411 54 433 4 9 73 96 153 193 81 96 241 294 356 440
275 349 520 638 530 627 2 -2 -7 -30 -20 -63 -13 -32 -56 -151 -96 -264 -40
-113 -85 -238 -101 -277 -37 -94 -124 -266 -160 -319 -25 -36 -27 -44 -14 -54
8 -7 15 -19 15 -26 0 -8 -61 -172 -136 -365 -74 -193 -134 -355 -132 -361 2
-6 37 72 78 173 92 231 178 425 265 599 67 134 67 134 46 149 -19 12 -20 16
-7 30 7 9 61 142 120 297 58 154 129 338 159 410 l53 129 80 7 c43 4 152 19
242 33 89 15 169 25 178 23 24 -5 -89 -139 -337 -398 -248 -260 -323 -345
-391 -441 -51 -73 -61 -89 -54 -89 2 0 112 120 243 267 242 273 524 568 577
606 16 12 27 17 24 11 -13 -21 -489 -874 -583 -1044 -230 -416 -411 -758 -403
-765 9 -9 659 1152 916 1637 l125 236 106 16 c189 28 225 31 216 15 -19 -31
-915 -1372 -1072 -1604 -213 -314 -207 -305 -195 -305 6 0 57 66 113 148 57
81 288 413 514 737 226 325 483 694 570 822 l158 231 86 12 c47 7 114 17 149
24 34 7 62 9 62 4 0 -19 -30 -65 -64 -97 l-35 -34 -36 32 c-35 30 -65 40 -65
22 0 -5 20 -22 45 -38 25 -15 47 -33 49 -39 3 -7 -65 -106 -151 -220 -205
-276 -676 -925 -943 -1298 -154 -216 -209 -300 -200 -306 17 -11 2 -31 411
535 362 501 910 1238 930 1250 6 4 21 -2 33 -14 34 -32 55 -26 23 7 -71 75 6
182 168 231 65 20 175 36 175 26 0 -36 -77 -115 -112 -115 -16 0 -18 -3 -9
-14 24 -29 36 -14 -454 -611 -527 -643 -1050 -1303 -1040 -1314 4 -3 14 4 23
16 9 11 146 178 303 369 334 408 674 831 884 1099 81 105 149 192 151 194 7 8
54 -11 81 -32 35 -29 66 -42 61 -25 -3 7 -22 23 -43 35 -58 32 -63 49 -27 86
17 18 57 73 90 122 93 141 160 195 264 210 47 7 48 7 69 -29 21 -36 42 -46 54
-26 4 6 0 22 -9 35 -24 37 -20 45 25 45 23 0 81 7 130 16 49 9 92 15 94 12 3
-3 12 -61 20 -129 9 -68 22 -155 30 -194 8 -38 15 -71 15 -72 0 0 -9 1 -19 4
-30 8 -47 33 -65 95 -9 32 -22 58 -28 58 -23 0 3 -76 62 -182 74 -131 90 -175
90 -240 0 -41 -3 -51 -20 -55 -11 -3 -20 -6 -20 -8 0 -1 9 -28 20 -61 32 -90
42 -143 31 -162 -8 -13 -11 -10 -18 18 -11 42 -30 50 -39 16 -4 -17 3 -44 21
-82 25 -52 26 -58 10 -67 -15 -8 -13 -11 14 -28 18 -11 34 -26 38 -34 8 -23
57 -45 97 -45 55 0 66 8 66 47 l0 35 108 -7 c197 -12 244 -22 269 -53 54 -67
61 -72 106 -72 43 0 44 1 68 52 13 29 72 126 132 215 59 90 107 166 107 169 0
14 -36 -24 -85 -91 -46 -62 -95 -115 -95 -104 0 2 31 180 69 394 38 215 79
464 91 555 12 91 23 170 25 177 4 14 66 27 225 48 145 19 278 48 240 52 -14 2
-108 -7 -210 -21 -102 -13 -186 -23 -188 -21 -8 7 116 27 282 45 98 11 195 24
215 29 20 5 97 15 171 21 254 20 326 36 369 79 35 35 26 43 -36 36 -218 -22
-772 -67 -885 -72 -155 -7 -150 -9 -128 67 24 80 30 134 19 167 -10 32 -12 33
-65 33 -60 0 -107 -19 -124 -49 -5 -11 -10 -62 -10 -114 0 -78 -3 -99 -19
-118 l-19 -24 -388 2 c-307 1 -389 4 -395 15 -5 7 -9 54 -9 105 0 154 -22 183
-142 183 l-78 0 0 -42 c0 -24 9 -97 20 -163 11 -66 20 -135 20 -152 0 -29 -3
-33 -26 -33 -30 0 -892 -67 -1424 -111 -474 -38 -1089 -93 -1398 -124 -135
-14 -247 -23 -249 -22 -1 2 8 91 22 198 13 106 36 310 50 451 24 235 25 259
11 274 -11 11 -16 34 -16 79 0 82 -45 933 -69 1295 -10 151 -17 277 -15 279 2
2 133 -22 291 -53 670 -130 1588 -285 2656 -447 l147 -23 0 -90 c0 -50 -7
-167 -14 -261 -8 -93 -18 -228 -22 -298 l-7 -128 84 3 84 3 25 50 c23 48 25
62 31 295 4 135 8 249 8 253 1 11 760 4 783 -7 31 -14 39 -71 41 -283 2 -181
4 -213 21 -246 22 -44 61 -67 116 -70 47 -2 49 1 61 50 13 59 11 138 -11 298
-11 81 -20 161 -20 177 l0 30 73 -7 c109 -10 361 -49 676 -105 156 -27 295
-50 309 -50 22 0 24 3 18 32 -19 97 -110 146 -341 184 -94 15 -185 37 -220 51
-33 14 -131 40 -217 58 -146 31 -265 72 -287 99 -5 6 91 -14 215 -45 123 -31
224 -54 224 -50 0 20 -129 70 -275 107 -55 14 -126 37 -157 51 l-56 25 -6 72
c-4 39 -13 177 -22 306 -15 238 -45 598 -108 1325 -47 532 -50 584 -36 562 6
-9 37 -86 69 -170 61 -161 89 -222 97 -214 3 3 -42 148 -100 323 -57 176 -114
357 -126 404 -44 176 -36 160 -79 160 -50 0 -73 -27 -100 -118 -20 -66 -25
-75 -57 -88 -46 -19 -301 -62 -315 -53 -8 5 -12 30 -10 67 2 53 -1 62 -21 76
-27 19 -61 21 -91 4 -30 -16 -44 -35 -62 -90 -9 -26 -28 -57 -42 -68 -25 -20
-26 -21 -7 -41 16 -18 17 -25 5 -77 -6 -31 -18 -86 -26 -121 -14 -64 -10 -151
6 -151 16 0 29 40 30 92 0 46 2 50 10 28 12 -30 5 -127 -22 -290 -23 -145 -24
-170 -3 -170 15 0 16 -17 12 -152 -5 -137 -9 -168 -43 -293 -21 -77 -52 -196
-70 -265 -37 -138 -54 -260 -37 -260 11 0 25 61 37 155 10 83 23 120 51 146
l27 24 -7 -70 c-15 -147 -35 -426 -41 -555 -3 -74 -8 -145 -11 -157 -6 -29
-25 -29 -105 1 -36 13 -85 27 -111 31 -57 9 -64 23 -42 85 18 50 13 104 -9 98
-7 -2 -22 -36 -35 -75 -23 -70 -24 -71 -51 -63 -122 35 -171 111 -280 434 -38
111 -78 221 -90 244 -31 61 -28 102 14 154 42 53 68 98 61 106 -9 9 -44 -27
-71 -74 -22 -38 -60 -72 -70 -62 -2 2 -87 219 -190 483 -103 264 -347 878
-543 1365 -195 487 -550 1371 -788 1965 -504 1257 -564 1395 -281 645 435
-1153 994 -2558 1712 -4305 202 -491 239 -601 217 -650 -10 -21 -8 -24 11 -27
30 -4 63 -58 92 -150 14 -44 25 -82 25 -85 0 -13 -89 10 -146 37 -78 38 -155
120 -197 207 -27 58 -31 79 -32 148 0 67 4 89 27 135 15 30 25 56 23 59 -8 7
-36 -22 -55 -58 l-18 -36 -21 47 c-79 185 -582 1551 -946 2573 -468 1313 -574
1610 -727 2030 -88 242 -209 571 -269 732 -118 317 -130 357 -117 392 6 17 3
27 -12 39 -13 11 -31 61 -54 147 -19 72 -51 166 -72 210 -21 44 -59 139 -85
210 -25 72 -77 198 -113 282 -37 83 -95 229 -130 325 l-63 173 -1239 1 -1239
0 880 -7z m1185 -146 c0 -16 -24 -78 -53 -138 -30 -61 -57 -123 -61 -138 -6
-24 -11 -27 -49 -27 -23 0 -59 -5 -80 -11 -22 -6 -41 -9 -43 -7 -8 8 69 108
160 207 53 57 98 112 101 123 9 27 25 22 25 -9z m-110 -14 c0 -5 -30 -43 -67
-83 -38 -40 -103 -111 -145 -158 l-76 -85 -104 -7 c-57 -3 -136 -12 -175 -19
-40 -7 -73 -12 -73 -11 0 13 160 110 308 188 174 91 285 157 298 177 7 12 34
11 34 -2z m174 -171 l-7 -98 -50 0 -50 0 6 35 c3 19 25 75 49 124 39 81 44 86
51 62 4 -14 5 -70 1 -123z m540 -360 c326 -873 581 -1574 1183 -3248 415
-1156 761 -2111 998 -2748 143 -387 185 -510 180 -532 -3 -15 -26 -54 -51 -85
-49 -64 -53 -75 -25 -75 14 0 27 16 45 54 14 30 30 58 36 61 19 12 100 -186
100 -246 0 -26 -3 -30 -17 -24 -27 10 -160 52 -223 70 l-55 15 -136 407 c-75
225 -225 662 -332 973 -107 311 -299 866 -427 1235 -566 1639 -966 2881 -1215
3773 -10 34 -21 62 -25 62 -17 0 -31 -30 -25 -52 14 -45 -4 -11 -34 62 -39 98
-77 280 -60 291 24 14 4 118 -63 339 -39 128 -52 178 -44 170 2 -3 88 -229
190 -502z m-1479 258 c8 -27 15 -54 15 -60 0 -13 -46 -36 -72 -36 -22 0 -22
10 -2 96 8 37 13 74 9 83 -3 9 4 5 15 -9 11 -14 27 -47 35 -74z m1310 -33 c3
-21 8 -49 11 -61 9 -42 -13 -13 -25 32 -13 55 -14 66 -1 66 5 0 12 -17 15 -37z
m-1745 -102 c-22 -129 -101 -252 -194 -301 -25 -14 -48 -22 -51 -19 -20 21 95
228 197 357 60 75 66 70 48 -37z m-228 -172 c-45 -104 -140 -202 -286 -298
-151 -98 -124 -56 113 179 102 102 187 180 189 174 1 -6 -6 -30 -16 -55z
m2003 -36 c43 -108 82 -277 136 -587 53 -311 70 -393 99 -496 10 -36 33 -146
50 -245 93 -536 204 -1124 431 -2279 66 -336 120 -626 121 -643 1 -18 -6 -41
-15 -51 -16 -17 -15 -24 13 -106 74 -220 156 -589 251 -1136 33 -190 76 -428
95 -529 19 -101 33 -185 31 -188 -13 -12 -281 628 -527 1257 -198 505 -346
874 -435 1080 -77 181 -76 172 -99 615 -9 160 -18 322 -21 360 l-6 70 62 -115
c118 -221 338 -695 535 -1154 37 -88 69 -155 71 -150 5 15 -71 239 -129 384
-55 135 -160 359 -392 837 -108 221 -148 314 -152 350 -2 26 -34 577 -69 1223
-36 646 -69 1245 -75 1330 -11 164 -13 240 -6 240 2 0 16 -30 31 -67z m-448
-80 c-10 -170 -42 -377 -127 -808 -43 -220 -83 -438 -89 -485 -7 -47 -14 -96
-17 -109 -4 -20 -30 25 -123 210 -157 313 -190 434 -157 580 21 96 30 111 50
84 31 -40 116 -214 175 -360 69 -168 87 -196 76 -121 -10 75 -50 179 -118 306
-33 63 -75 148 -92 189 l-31 73 43 87 c24 48 75 163 113 256 77 191 68 182
185 185 39 1 79 5 90 10 11 5 22 9 24 9 2 1 1 -47 -2 -106z m-307 49 c0 -30
-34 -119 -85 -223 -25 -53 -52 -118 -59 -145 l-12 -48 -36 47 c-33 43 -85 152
-137 283 l-20 52 57 10 c31 6 104 16 162 22 58 7 107 13 109 16 10 10 21 3 21
-14z m-446 -67 c-35 -53 -74 -59 -74 -10 0 35 0 35 45 35 l45 0 -16 -25z
m-688 -133 c-9 -59 -49 -240 -90 -402 -41 -162 -80 -335 -87 -385 l-13 -89
-274 -306 c-358 -397 -715 -803 -983 -1115 -118 -138 -233 -273 -257 -300
l-43 -50 32 65 c117 239 393 725 784 1380 340 568 485 816 611 1044 l99 178
80 38 c44 21 96 49 115 63 33 23 35 24 38 6 2 -11 -4 -68 -12 -127z m84 -300
c-20 -219 -70 -363 -155 -441 -24 -22 -48 -41 -53 -41 -9 0 43 234 150 670
l63 255 3 -160 c2 -88 -2 -215 -8 -283z m520 360 l-1 -27 -19 24 c-11 13 -20
29 -20 36 0 7 -3 22 -6 32 -4 12 2 9 20 -10 15 -16 26 -40 26 -55z m-54 -8
c16 -42 13 -81 -5 -70 -5 4 -12 25 -16 49 -10 63 -15 78 -27 71 -7 -5 -8 -37
-4 -96 7 -92 0 -118 -30 -118 -11 0 -14 24 -14 114 l0 115 28 3 c32 4 46 -9
68 -68z m250 -14 c35 -53 134 -296 134 -329 0 -14 -10 -42 -22 -61 -12 -19
-27 -50 -33 -69 l-12 -34 -33 48 c-18 26 -56 113 -85 194 -29 81 -60 162 -70
180 -14 28 -15 38 -4 62 6 16 23 38 36 49 31 25 53 15 89 -40z m733 -255 c12
-203 24 -504 41 -995 6 -168 13 -318 15 -335 l5 -30 -19 32 c-32 52 -59 106
-162 332 l-99 215 50 300 c28 166 71 409 97 541 55 277 53 279 72 -60z m-1940
8 c-140 -253 -347 -609 -704 -1213 -409 -692 -513 -870 -694 -1195 l-146 -263
-146 -158 c-81 -88 -213 -236 -295 -330 -469 -537 -611 -699 -692 -784 l-89
-95 -74 19 c-41 10 -259 74 -484 142 -226 67 -476 139 -555 160 -80 20 -148
40 -152 44 -9 7 857 872 1252 1250 140 135 491 470 780 745 781 744 1001 956
1370 1322 l335 332 86 36 c48 20 133 64 190 99 57 35 106 62 108 61 2 -2 -39
-80 -90 -172z m1147 -59 c44 -94 74 -206 74 -274 l0 -55 -21 35 c-46 75 -85
193 -155 475 -7 28 62 -94 102 -181z m-110 60 c14 -32 43 -124 65 -206 22 -81
48 -170 59 -198 l20 -50 -21 -56 -22 -57 -14 34 c-28 67 -63 201 -103 401 -22
112 -43 212 -47 223 -11 38 36 -31 63 -91z m-57 -134 c68 -207 90 -305 98
-425 7 -120 -11 -203 -60 -279 l-32 -50 -12 105 c-6 57 -26 196 -42 309 -21
138 -31 243 -31 320 0 123 8 196 20 183 4 -4 30 -78 59 -163z m1567 -159 c25
-68 81 -243 125 -390 139 -460 187 -615 200 -646 6 -16 11 -50 10 -73 -2 -39
-1 -43 17 -38 15 5 21 -1 32 -36 7 -24 14 -61 16 -83 8 -112 369 -1467 855
-3205 149 -531 287 -1028 309 -1105 21 -77 38 -141 36 -142 -5 -6 -220 425
-329 657 -62 135 -205 453 -318 708 -112 255 -205 458 -207 453 -9 -26 114
-354 221 -591 35 -80 131 -282 212 -450 171 -354 258 -546 326 -719 27 -68 49
-126 49 -128 0 -6 -50 8 -195 54 -77 25 -180 54 -230 64 -49 11 -91 21 -92 23
-7 7 -104 496 -208 1051 -63 336 -119 618 -125 627 -14 25 -13 37 9 64 19 24
18 25 -21 181 -148 588 -256 1118 -499 2441 -77 422 -169 916 -204 1097 -35
182 -67 346 -70 365 -5 34 -5 34 15 -10 12 -25 41 -101 66 -169z m-1667 -1
c83 -502 63 -821 -66 -1080 l-47 -95 -10 55 c-13 74 4 422 44 880 32 373 39
435 45 428 2 -1 17 -86 34 -188z m537 -443 c108 -212 147 -357 147 -535 0 -69
-4 -127 -10 -133 -11 -11 -138 304 -202 506 -40 124 -82 312 -95 420 l-6 50
61 -110 c33 -60 81 -149 105 -198z m-976 209 c0 -52 -36 -498 -80 -981 -40
-452 -64 -750 -76 -960 -6 -118 -7 -122 -61 -240 -30 -66 -108 -247 -174 -402
-65 -155 -145 -339 -178 -410 -32 -70 -85 -195 -116 -278 -32 -82 -89 -215
-127 -295 -38 -80 -90 -203 -114 -273 -54 -157 -83 -216 -129 -262 -41 -40
-58 -45 -50 -12 3 12 28 130 55 262 97 459 185 844 459 1995 146 616 281 1195
361 1553 19 86 28 106 68 157 79 100 147 179 155 179 4 1 7 -14 7 -33z m848
-291 c158 -384 199 -534 209 -760 6 -135 -9 -309 -26 -320 -8 -4 -106 296
-165 505 -44 156 -83 335 -101 465 -25 185 -30 354 -10 333 2 -2 44 -102 93
-223z m-33 -480 c58 -253 119 -511 135 -574 17 -63 30 -138 30 -167 0 -86 -27
-269 -81 -543 -27 -141 -55 -301 -63 -356 -7 -61 -15 -92 -19 -80 -12 36 -75
426 -101 625 -14 107 -48 407 -76 665 -27 259 -55 518 -61 577 -12 101 -11
111 11 185 26 90 53 148 84 181 l21 24 7 -39 c4 -21 54 -245 113 -498z m-1160
209 c-108 -518 -198 -912 -445 -1944 -173 -724 -284 -1195 -341 -1450 -17 -80
-33 -146 -34 -148 -10 -12 -524 130 -1015 281 -151 46 -349 106 -440 132 -91
25 -171 48 -178 51 -20 6 77 181 383 694 166 279 311 533 378 667 15 28 80
109 145 180 65 70 179 197 255 281 144 161 1315 1495 1332 1518 5 7 11 12 12
10 2 -2 -22 -124 -52 -272z m1662 128 c188 -314 284 -679 282 -1066 0 -97 -3
-116 -11 -96 -7 14 -66 140 -134 280 -167 351 -205 457 -224 641 -11 109 8
329 29 329 3 0 29 -40 58 -88z m-773 -313 c35 -199 57 -375 111 -864 49 -448
74 -649 106 -838 l19 -117 -20 -183 c-27 -235 -69 -504 -131 -831 -75 -398
-127 -685 -153 -854 -13 -84 -26 -155 -29 -159 -3 -3 -45 7 -94 21 -48 14
-136 39 -196 54 l-107 27 4 40 c3 22 8 94 11 160 12 248 47 776 105 1580 33
457 71 994 84 1195 l25 365 44 95 c24 52 77 177 117 277 41 100 75 181 77 180
1 -2 14 -68 27 -148z m833 -459 c138 -315 222 -637 252 -960 11 -116 15 -418
6 -408 -14 14 -149 413 -256 757 -66 212 -147 467 -180 566 -32 99 -59 198
-59 220 0 22 10 82 22 134 l21 94 70 -139 c38 -76 94 -195 124 -264z m1317
-326 c345 -989 1401 -4132 1392 -4142 -6 -5 -248 60 -295 80 l-34 14 -104 394
c-169 643 -1048 3838 -1139 4145 -4 11 -4 18 -1 14 4 -3 85 -230 181 -505z
m-1539 301 c39 -104 54 -149 175 -530 184 -576 257 -850 309 -1155 44 -261 53
-376 61 -855 5 -258 12 -510 16 -560 4 -49 4 -88 1 -85 -16 15 -169 643 -357
1470 -72 316 -174 750 -227 965 l-96 389 31 166 c17 91 35 191 38 223 4 32 10
54 15 50 4 -4 20 -39 34 -78z m-45 -800 c22 -82 78 -325 125 -540 47 -214 108
-473 135 -575 27 -102 63 -257 80 -345 16 -88 64 -290 105 -449 124 -474 165
-688 181 -939 6 -90 5 -107 -7 -103 -8 3 -95 28 -194 56 -236 67 -430 129
-449 143 -21 17 -77 448 -191 1462 -42 380 -57 447 -49 225 7 -199 32 -448 93
-918 78 -592 94 -769 69 -759 -47 17 -283 91 -380 118 -112 31 -118 34 -118
58 0 40 86 535 240 1382 109 598 253 1430 261 1504 2 18 59 -166 99 -320z
m-1320 -431 c0 -132 -14 -303 -50 -599 -11 -88 -24 -227 -30 -310 -29 -426
-74 -961 -81 -969 -12 -13 -118 13 -388 95 -124 38 -231 71 -238 74 -8 2 35
112 124 317 74 172 200 464 280 648 126 291 314 749 354 862 21 59 29 26 29
-118z m-2016 -56 c-62 -123 -160 -294 -374 -653 -125 -209 -235 -395 -244
-413 -16 -30 -20 -33 -49 -27 -51 11 -221 66 -230 75 -11 10 168 223 468 560
125 140 277 314 338 387 61 73 113 130 115 129 2 -2 -9 -28 -24 -58z m4359
-613 c132 -311 264 -635 541 -1335 140 -355 277 -700 305 -767 27 -68 46 -123
43 -123 -28 1 -167 37 -304 79 -90 27 -183 54 -208 58 l-45 9 -75 224 c-42
124 -108 333 -148 465 -88 290 -81 269 -88 262 -9 -9 27 -198 61 -317 18 -64
70 -218 115 -343 45 -125 80 -234 76 -242 -8 -22 -48 -18 -134 14 -42 16 -85
31 -94 35 -12 3 -18 16 -18 33 0 53 -30 600 -60 1088 -53 876 -63 1072 -56
1064 2 -2 42 -94 89 -204z m-5313 -746 c52 -16 103 -29 114 -29 15 0 17 -5 11
-27 -3 -15 -17 -45 -30 -68 l-24 -41 -148 37 c-234 58 -233 57 -226 77 35 97
109 109 303 51z m423 -113 c101 -30 296 -82 433 -115 137 -33 292 -74 344 -91
52 -16 163 -45 245 -65 83 -19 164 -42 182 -50 18 -9 83 -24 145 -36 139 -24
162 -38 166 -103 2 -25 0 -46 -3 -46 -23 0 -474 100 -675 150 -336 83 -1113
291 -1123 300 -5 4 3 31 17 59 23 44 30 51 56 51 16 0 112 -24 213 -54z m8743
-152 c-6 -119 0 -177 18 -171 7 2 11 43 12 116 1 61 4 114 7 117 13 13 20
-170 15 -391 -3 -132 -2 -253 2 -270 l7 -30 13 30 c14 34 17 144 10 450 -4
147 -1 212 8 244 7 23 15 41 18 38 3 -2 9 -90 15 -193 14 -278 35 -585 75
-1069 44 -544 74 -948 74 -1002 0 -39 -2 -43 -25 -43 -13 0 -47 9 -75 20 -28
11 -64 20 -80 20 l-30 0 -1 463 c0 354 -3 456 -12 437 -7 -17 -13 -165 -17
-451 l-5 -425 -75 18 c-89 21 -120 49 -120 106 l-1 37 -15 -27 c-32 -60 -82
-62 -201 -11 l-85 37 6 46 c14 110 26 317 36 590 12 325 30 539 60 694 18 89
18 102 5 112 -20 15 -20 93 2 370 l17 220 86 22 c47 12 102 22 123 22 48 0 52
14 -69 -245 -98 -213 -158 -355 -151 -362 3 -2 17 11 32 29 34 40 89 155 143
298 45 120 93 220 130 268 25 32 27 33 40 15 11 -14 13 -42 8 -129z m-7055
-300 c24 -8 134 -35 244 -58 218 -48 315 -80 386 -128 44 -30 46 -32 35 -60
-10 -27 -13 -29 -51 -22 -22 3 -110 24 -195 45 -368 92 -494 127 -498 138 -3
10 27 101 33 101 1 0 22 -7 46 -16z m1321 -346 l147 -40 -6 -47 c-3 -25 -6
-47 -7 -48 -8 -11 -376 91 -376 105 0 3 8 23 18 44 20 45 7 46 224 -14z m329
-98 c201 -20 321 -53 403 -109 40 -28 87 -91 67 -91 -26 0 -307 63 -401 89
-169 49 -204 65 -208 95 -4 31 -7 30 139 16z m594 -159 c22 -6 105 -21 185
-35 178 -31 264 -57 318 -96 42 -30 79 -76 70 -86 -14 -13 -466 99 -595 148
-50 18 -53 21 -53 54 0 29 3 34 18 30 9 -3 35 -9 57 -15z m1110 -281 c107 -15
176 -47 197 -91 9 -18 16 -34 15 -35 -1 -1 -47 5 -102 13 -148 22 -204 50
-228 116 -5 14 -2 16 16 12 12 -2 58 -9 102 -15z m420 -114 c197 -37 233 -45
287 -66 51 -19 128 -79 128 -100 0 -5 -17 -3 -38 4 -21 8 -103 24 -181 35
-196 30 -261 52 -316 105 -56 54 -59 70 -7 52 20 -7 78 -21 127 -30z m655
-171 c167 -33 300 -75 363 -114 26 -17 47 -32 47 -34 0 -6 -152 12 -250 29
-121 21 -223 56 -282 97 -54 36 -71 63 -36 54 13 -4 84 -18 158 -32z m-2127
-22 c-18 -2 -48 -2 -65 0 -18 2 -4 4 32 4 36 0 50 -2 33 -4z m310 -10 c-46 -2
-120 -2 -165 0 -46 1 -9 3 82 3 91 0 128 -2 83 -3z m2532 -158 c22 -8 54 -27
70 -41 l30 -25 -92 6 c-120 7 -188 28 -230 70 -18 18 -33 37 -33 43 0 10 193
-29 255 -53z m262 -69 c60 -14 126 -33 147 -42 34 -17 36 -19 20 -31 -40 -29
-192 -6 -248 38 -28 22 -52 59 -38 59 5 0 58 -11 119 -24z m-3592 -102 c407
-9 806 -14 887 -11 l147 5 5 -41 c14 -104 76 -1542 77 -1777 1 -138 -50 -724
-63 -735 -2 -1 -415 -5 -919 -9 l-917 -7 -20 113 c-12 62 -31 196 -42 298 -23
211 -43 326 -70 420 -18 61 -18 72 -5 170 18 137 41 437 60 780 21 383 41 641
61 773 5 32 9 37 32 37 15 0 360 -7 767 -16z m4002 1 c55 -16 97 -45 114 -77
6 -11 7 -18 2 -15 -6 4 -54 16 -109 28 -103 22 -142 37 -163 63 -12 14 -7 16
46 16 33 0 82 -7 110 -15z m250 -75 c2 0 -1 -9 -7 -20 -20 -38 -70 -18 -70 27
0 23 1 23 36 8 20 -8 38 -15 41 -15z m138 -30 c36 -8 65 -31 65 -52 0 -15 -95
-8 -130 10 -48 24 -53 52 -8 52 18 0 51 -5 73 -10z m163 -47 c14 -3 22 -12 20
-21 -9 -47 -88 -35 -88 14 0 23 3 25 23 19 12 -3 32 -9 45 -12z m677 -186 l40
-14 -33 -7 c-46 -11 -99 0 -240 46 -67 22 -143 43 -170 46 -38 6 -48 11 -50
29 -3 21 3 20 205 -32 114 -29 226 -60 248 -68z m171 -40 c61 -13 114 -39 114
-56 0 -6 -14 -6 -32 -1 -18 4 -54 11 -81 15 -51 7 -122 54 -82 54 11 1 48 -5
81 -12z m113 -1987 c-21 -13 -192 -29 -180 -17 7 7 106 22 176 25 17 1 18 0 4
-8z m-260 -34 c-2 -2 -96 -16 -209 -30 -113 -14 -218 -28 -233 -31 -17 -3 -26
-1 -22 5 3 6 21 10 38 11 18 0 93 11 167 24 118 20 271 33 259 21z m277 -43
c-27 -179 -80 -517 -101 -648 -21 -133 -55 -418 -55 -458 0 -6 -8 -3 -17 6
-16 16 -18 37 -15 173 2 148 -4 194 -28 194 -6 0 -9 -61 -8 -159 2 -124 0
-163 -11 -173 -11 -11 -12 -4 -7 44 5 38 4 58 -5 63 -20 13 -30 -18 -23 -76
12 -117 -55 -93 -181 66 -74 92 -147 165 -166 165 -16 0 20 -45 140 -175 130
-139 131 -136 -45 -115 l-102 13 -6 56 c-18 165 -19 223 -5 231 11 7 9 20 -9
72 -33 96 -40 137 -57 345 -8 106 -20 215 -26 244 -13 61 -13 61 75 80 90 20
169 18 195 -5 21 -19 21 -19 21 1 0 11 6 26 14 32 11 9 126 30 175 31 11 0 12
-26 7 -152 -7 -152 5 -288 25 -288 5 0 9 98 9 224 l0 223 63 10 c34 6 82 11
105 12 l44 1 -6 -37z m-942 -42 c6 -9 -84 -24 -93 -15 -10 9 23 24 56 24 17 0
34 -4 37 -9z m-129 -20 c-6 -6 -46 -12 -90 -15 -75 -6 -78 -5 -50 9 33 16 155
21 140 6z m-201 -20 c3 -5 -8 -11 -26 -15 -34 -7 -44 -3 -33 13 8 13 52 15 59
2z m-138 -16 c-27 -20 -107 -35 -189 -34 -98 0 -60 15 80 30 59 6 110 13 112
15 2 2 7 4 10 4 3 0 -2 -7 -13 -15z m-354 -55 c-13 -6 -64 -14 -115 -20 -51
-6 -110 -13 -132 -16 -55 -7 -33 14 32 32 56 15 252 18 215 4z m-364 -45 c-41
-15 -297 -49 -306 -41 -3 3 12 13 32 21 41 17 154 32 251 33 l60 1 -37 -14z
m-466 -65 c-64 -16 -249 -40 -422 -55 l-55 -4 35 15 c68 31 283 61 435 62 l80
0 -73 -18z m-590 -72 c-24 -10 -94 -26 -155 -33 -208 -27 -371 -44 -375 -40
-2 2 10 11 28 20 46 24 154 42 335 55 88 6 162 14 164 16 2 2 14 4 25 3 15 0
8 -7 -22 -21z m-582 -63 c0 -22 -115 -45 -287 -57 -39 -3 -41 -2 -26 14 8 9
29 20 46 24 69 15 267 29 267 19z m412 -192 c-66 -82 -243 -303 -394 -493
-273 -342 -467 -575 -473 -568 -4 3 23 237 80 703 19 159 35 305 35 325 0 19
4 41 8 47 4 7 41 19 82 27 115 22 134 24 153 17 15 -5 3 -27 -78 -139 -92
-130 -146 -226 -161 -287 -10 -43 0 -30 109 145 150 242 187 293 222 302 17 3
84 14 150 23 66 9 158 22 205 29 47 8 106 14 133 15 l47 1 -118 -147z m-1152
103 c0 -9 -89 -44 -138 -55 -29 -6 -150 -20 -270 -31 -119 -11 -225 -23 -235
-26 -14 -5 -18 -2 -15 13 4 22 109 42 408 77 220 25 250 28 250 22z m-700 -92
c0 -12 -94 -46 -164 -59 -71 -14 -315 -35 -403 -35 -42 0 -57 12 -28 23 22 9
275 46 415 61 148 16 180 18 180 10z m-660 -98 c0 -20 -6 -24 -47 -29 -27 -3
-106 -13 -176 -23 -124 -16 -129 -16 -142 2 -19 27 -10 30 145 49 74 9 144 17
155 19 56 9 65 6 65 -18z m-796 -91 c12 -32 -101 -57 -399 -91 -126 -14 -249
-29 -273 -34 -38 -7 -44 -5 -62 18 -11 14 -19 26 -18 28 2 1 152 21 333 43
335 41 381 47 401 50 7 0 15 -6 18 -14z m-836 -117 c5 -27 -33 -39 -177 -54
-75 -8 -142 -16 -149 -19 -6 -2 -90 -14 -185 -25 -94 -11 -194 -25 -222 -30
-27 -5 -147 -21 -265 -35 -118 -14 -324 -41 -458 -60 -133 -19 -257 -35 -274
-35 -21 0 -42 9 -60 27 l-29 28 278 37 c730 97 1485 189 1523 184 8 0 16 -9
18 -18z m911 -273 c17 -104 35 -224 40 -265 6 -41 25 -131 42 -200 33 -133 50
-322 31 -334 -6 -3 -48 42 -93 101 -95 123 -199 247 -344 413 -56 63 -159 182
-230 265 l-129 149 180 28 c98 16 242 36 319 46 127 17 141 17 147 3 4 -9 21
-101 37 -206z m-2745 36 l28 -29 -29 -6 c-101 -20 -266 -37 -311 -33 -56 6
-110 33 -96 47 8 8 281 46 350 49 21 1 38 -7 58 -28z m292 -249 c43 -37 155
-130 249 -207 93 -77 213 -182 265 -233 l95 -92 -130 76 c-71 43 -218 126
-325 187 -289 162 -502 289 -495 295 6 7 197 40 236 41 19 1 49 -19 105 -67z"/>
<path d="M10713 6518 c-5 -18 -14 -32 -20 -31 -6 1 -14 -18 -18 -44 -5 -35 -3
-49 9 -61 14 -14 17 -12 31 22 18 43 35 127 29 138 -10 16 -21 7 -31 -24z"/>
<path d="M10650 6339 c0 -11 -16 -68 -35 -126 -35 -106 -43 -165 -26 -192 8
-12 11 -8 16 15 4 16 19 70 35 119 37 119 41 138 34 174 -7 35 -24 42 -24 10z"/>
<path d="M10680 6011 c0 -103 38 -112 48 -12 5 52 -7 81 -34 81 -11 0 -14 -17
-14 -69z"/>
<path d="M10517 5883 c-19 -73 -22 -129 -8 -137 12 -8 54 152 47 180 -10 39
-21 28 -39 -43z"/>
<path d="M10660 5864 c0 -20 -7 -60 -16 -90 -11 -40 -12 -58 -4 -74 23 -43 34
-22 46 87 7 65 0 113 -16 113 -6 0 -10 -16 -10 -36z"/>
<path d="M10736 5811 c-10 -120 26 -187 39 -76 7 53 -8 139 -25 150 -4 2 -10
-31 -14 -74z"/>
<path d="M10645 4983 c-10 -129 -11 -304 -2 -310 18 -11 22 13 23 120 1 62 7
136 15 164 13 55 6 102 -17 110 -8 3 -14 -25 -19 -84z"/>
<path d="M10650 2181 c0 -33 5 -63 10 -66 6 -3 10 -22 10 -41 0 -36 10 -43 30
-19 9 11 9 21 -4 46 -9 18 -16 56 -16 86 0 40 -4 53 -15 53 -12 0 -15 -13 -15
-59z"/>
<path d="M10654 1725 c-4 -8 1 -27 11 -41 9 -14 14 -32 11 -40 -3 -8 1 -14 9
-14 10 0 15 11 15 36 0 57 -32 98 -46 59z"/>
<path d="M10760 1725 c-8 -9 -9 -29 -5 -57 7 -39 9 -40 21 -23 16 21 19 81 5
89 -5 3 -14 -1 -21 -9z"/>
<path d="M10516 1694 c-3 -9 5 -34 18 -57 21 -34 26 -38 32 -23 6 17 -24 96
-37 96 -4 0 -10 -7 -13 -16z"/>
<path d="M10704 1608 c-4 -6 -8 -24 -8 -40 -1 -22 3 -28 20 -28 29 0 38 27 19
56 -18 27 -21 29 -31 12z"/>
<path d="M10600 1543 c0 -14 11 -40 23 -57 13 -17 31 -44 40 -61 14 -26 16
-28 23 -12 7 18 -1 38 -49 119 -26 45 -37 48 -37 11z"/>
<path d="M10690 1374 c0 -14 51 -74 64 -74 12 0 6 33 -11 61 -18 31 -53 40
-53 13z"/>
<path d="M11170 6183 c0 -12 5 -25 10 -28 6 -3 10 -26 10 -49 0 -25 6 -49 14
-55 7 -6 21 -39 31 -72 12 -45 20 -58 28 -50 21 21 -30 196 -73 251 -19 25
-20 25 -20 3z"/>
<path d="M11256 1595 c-10 -17 -26 -37 -36 -45 -10 -8 -20 -28 -24 -43 -6 -25
-5 -27 12 -18 29 16 74 87 70 112 -3 23 -4 23 -22 -6z"/>
</g>
</svg>
